<svg xmlns="http://www.w3.org/2000/svg" style="display: none;">
  <symbol id="SearchIcon" viewBox="0 0 58.95 57.55">
    <g id="_Слой_6">
      <g>
        <circle class="cls-2" cx="20.81" cy="20.81" r="19.81"/>
        <rect class="cls-1" x="32.8" y="43.26" width="27.43" height="3.73" transform="translate(45.53 -19.68) rotate(45)"/>
      </g>
    </g>
  </symbol>
  <symbol id="SearchIconPCVersion" viewBox="0 0 19.11 18.63">
    <g id="_Слой_1-2">
      <g>
        <g>
          <path class="cls-2" d="M7.26,14.01c-3.73,0-6.76-3.03-6.76-6.76S3.53.5,7.26.5s6.76,3.03,6.76,6.76-3.03,6.76-6.76,6.76Z"/>
          <path class="cls-1" d="M7.26,1c3.45,0,6.26,2.81,6.26,6.26s-2.81,6.26-6.26,6.26S1,10.71,1,7.26,3.81,1,7.26,1M7.26,0C3.25,0,0,3.25,0,7.26s3.25,7.26,7.26,7.26,7.26-3.25,7.26-7.26S11.27,0,7.26,0h0Z"/>
        </g>
        <g>
          <rect class="cls-1" x="14.68" y="11.04" width="1.24" height="7.54" transform="translate(-5.99 15.14) rotate(-44.97)"/>
          <path class="cls-1" d="M13.07,12.41l4.63,4.63-.17.17-4.63-4.63.17-.17M13.07,11l-1.58,1.58,6.04,6.04,1.58-1.58-6.04-6.04h0Z"/>
        </g>
      </g>
    </g>
  </symbol>
  <symbol id="CloseBtnIcon" viewBox="0 0 20.04 20.04">
    <g id="_Слой_1-2" >
      <g>
        <line class="cls-1" x1="1.06" y1="1.06" x2="18.98" y2="18.98"/>
        <line class="cls-1" x1="18.98" y1="1.06" x2="1.06" y2="18.98"/>
      </g>
    </g>
  </symbol>
  <symbol id="friendsIcon" viewBox="0 0 232.08 172.36">
    <g id="_Слой_1-2">
      <g>
        <circle class="cls-1" cx="73.62" cy="61.22" r="41.33"/>
        <circle class="cls-1" cx="158.82" cy="40.89" r="40.89"/>
        <path class="cls-1" d="M230.79,137.85s-.04,11.81-11.34,12.35l-64,.07c.69-1.09.71-.94.73-.81-1.68-7.55-11.93-41.09-53.26-49.66,0,0,25.87-19.06,70.76-13.95s63.74,25.79,57.11,52Z"/>
        <path class="cls-1" d="M156.18,149.5c.41,1.84.3,2.09,0,0h0Z"/>
        <path class="cls-1" d="M74.58,107.14c2.02-.11,61.37.11,69.67,33.83,9.06,36.83-18.93,28.59-23.79,31.39l-106.17-.5c.35-.86-9.51-.23-13.21-13.05-3.8-13.2-1.4-52.71,73.5-51.67Z"/>
      </g>
    </g>
  </symbol>
  <symbol id="messegesBell" viewBox="0 0 237.54 222.94">
    <g id="_Слой_1-2" >
      <g>
        <path class="cls-1" d="M92.1,201.85c0,1.83.19,3.68.59,5.53,3.07,14.41,17.24,23.6,31.64,20.52,12.53-2.67,21.11-13.74,21.11-26.06h-53.34Z"/>
        <path class="cls-1" d="M237.36,182.9c2.22,13.78-16.44,18.95-16.44,18.95h-67.22l-72.78-.28s-50.22,1.33-66.22-1.78S.03,182.46.03,182.46c44-44.44,47.56-77.33,47.11-75.56s3.11-1.33,7.56-56.44S116.03.24,116.03.24c0,0,57.78-6.22,66.22,45.33,0,0-5.85,87.13,52.82,136.02l2.29,1.31Z"/>
      </g>
    </g>
  </symbol>
  <symbol id="toolTipIcon"  viewBox="0 0 251.56 251.56">
    <g id="_Слой_1-2">
      <g>
        <circle opacity="70%" fill="gray" class="cls-2" cx="125.78" cy="125.78" r="117.78"/>
        <g>
          <path fill="white" class="cls-1" d="M83.86,98.74s15.56,7.78,22-11.11,29.33-11.78,29.33-11.78c0,0,18,10.89,4.89,27.33s-31.33,16.67-29.78,39.78c0,0,4.44,16.44,20.22,7.33,0,0,4.89-2.44,8.44-14.67,0,0,40.67-26.22,35.56-45.11,0,0,2.22-22.22-23.56-34s-80.67-.22-71.33,38"/>
          <circle fill="white"  class="cls-1" cx="123.49" cy="181.83" r="17.33"/>
        </g>
      </g>
    </g>
  </symbol>
  <symbol id="2x2SetkaIcon" viewBox="0 0 100 100">
    <g id="_Слой_1-2">
      <g>
        <rect display="none" class="cls-2" width="100" height="100"/>
        <g>
          <rect class="cls-1" x=".04" y=".04" width="48.12" height="48.13"/>
          <rect class="cls-1" x="52" y="52" width="48" height="48"/>
          <rect class="cls-1" x="52" y=".04" width="48" height="48.13"/>
          <rect class="cls-1" x=".04" y="52" width="48.12" height="48"/>
        </g>
      </g>
    </g>
  </symbol>
  <symbol id="2x3SetkaIcon" viewBox="0 0 100 100">
    <g id="_Слой_1-2" >
      <g>
        <rect class="cls-1" width="30.17" height="30.17" rx="3.33" ry="3.33"/>
        <rect class="cls-1" x="40" width="60" height="30.17" rx="1.83" ry="1.83"/>
        <rect class="cls-1" x="40" y="34.92" width="60" height="30.17" rx="2.88" ry="2.88"/>
        <rect class="cls-1" x="40" y="69.83" width="60" height="30.17" rx="3" ry="3"/>
        <rect class="cls-1" y="69.83" width="30.17" height="30.17" rx="3.58" ry="3.58"/>
        <rect class="cls-1" y="34.92" width="30.17" height="30.17" rx="3.04" ry="3.04"/>
      </g>
    </g>
  </symbol>
  <symbol id="3x3SetkaIcon" viewBox="0 0 100 100">
    <g id="_Слой_1-2" >
      <g>
        <rect class="cls-1" y="0" width="30.17" height="30.17" rx="3.33" ry="3.33"/>
        <rect class="cls-1" y="69.83" width="30.17" height="30.17" rx="3.58" ry="3.58"/>
        <rect class="cls-1" y="34.92" width="30.17" height="30.17" rx="3.04" ry="3.04"/>
        <rect class="cls-1" x="34.92" width="30.17" height="30.17" rx="3.33" ry="3.33"/>
        <rect class="cls-1" x="34.92" y="69.83" width="30.17" height="30.17" rx="3.58" ry="3.58"/>
        <rect class="cls-1" x="34.92" y="34.92" width="30.17" height="30.17" rx="3.04" ry="3.04"/>
        <rect class="cls-1" x="69.83" y="0" width="30.17" height="30.17" rx="3.33" ry="3.33"/>
        <rect class="cls-1" x="69.83" y="69.83" width="30.17" height="30.17" rx="3.58" ry="3.58"/>
        <rect class="cls-1" x="69.83" y="34.92" width="30.17" height="30.17" rx="3.04" ry="3.04"/>
      </g>
    </g>
  </symbol>
  <symbol id="ShevronIcon" viewBox="0 0 144.55 256">
    <g id="_Слой_1-2">
      <path class="cls-1" d="M1.35,22.69c-.09,0-7.86-29.57,24.03-21.19l115.83,115.83s7.83,12-.5,19.94L25.37,253.77S7.55,263.49.05,242.33c0,0-1.17-13.17,8.33-17.17l95.5-95.5s4.17-2.33-1.03-4.81L1.35,22.69Z"/>
    </g>
  </symbol>
  <symbol id="OptionsIcon" viewBox="0 0 100.33 91.45">
    <g id="_Слой_1-2" >
      <g>
        <rect class="cls-1" x=".33" y="12.62" width="100" height="8.76"/>
        <rect class="cls-1" x=".33" y="44.75" width="100" height="8.76"/>
        <polygon class="cls-1" points="100.33 86.45 .33 86.45 0 77.69 100 77.69 100.33 86.45"/>
        <rect class="cls-1" x="12.67" y="33.91" width="8.44" height="34" rx="2.64" ry="2.64"/>
        <rect class="cls-1" x="86.67" width="8.44" height="34" rx="2.76" ry="2.76"/>
        <rect class="cls-1" x="71.11" y="63.45" width="8.44" height="34" rx="2.65" ry="2.65"/>
      </g>
    </g>
  </symbol>
  <symbol id="HomePageIcon" viewBox="0 0 254.24 254.13">
    <g id="_Слой_1-2" >
      <g>
        <path class="cls-1" d="M31.34,136.74v101.53c0,9.09,7.38,16.45,16.05,15.82l53.62-.12-.22-78.26c0-2.76,2.24-5,5-5h42.67c2.76,0,5,2.24,5,5l.22,78.13,52.8-.12c9.27.59,16.43-6.59,16.43-15.44v-101.99l-191.56.44Z"/>
        <path class="cls-1" d="M120.89,2.49L4.91,111.03c-10.19,9.54-3.44,26.63,10.52,26.63h223.31c14.03,0,20.82-17.18,10.57-26.77L133.48,2.49c-3.54-3.32-9.05-3.32-12.59,0Z"/>
      </g>
    </g>
  </symbol>
  <symbol id="ListIcon" viewBox="0 0 196.25 256.03">
    <g id="_Слой_1-2">
      <g>
        <g>
          <rect fill="black" class="cls-1" x="47.79" width="100.67" height="30.25" rx="4.25" ry="4.25"/>
          <path fill="black" class="cls-1" d="M31.93,15.12h-14.34c-.11,0-.22.01-.33.04-1.65.4-14.66,4.02-17.19,17.92-.02.09-.03.19-.03.28L0,238.01s0,.08,0,.12c.1,1.13,1.85,17.9,21.42,17.9h156.86c.18,0,.34-.1.52-.1,3.03-.06,18.28-6.67,17.42-20.03V34.72c0-5.22-1.72-10.35-5.11-14.32s-7.72-5.93-14.16-5.28c-.04,0-.08,0-.13,0l-11.85-.1c-.78,0-1.42.63-1.42,1.41l.05,15.28c0,.13-.02.26-.05.38-.37,1.29-2.9,8.62-13.85,13.08-.17.07-.36.11-.55.11l-101.32-.06c-.19,0-.37-.04-.55-.11-1.8-.78-12.31-5.63-13.98-14.07-.02-.1-.03-.21-.03-.31l.06-14.21c0-.78-.63-1.41-1.41-1.41Z"/>
        </g>
        <g>
          <g>
            <path fill="white" class="cls-2" d="M153.12,154.31h-54.43c-3.87-.79-6.97-3.99-6.97-7.9h0c0-3.91,3.1-7.1,6.89-7.1h54.43c3.79,0,6.89,3.2,6.89,7.1h0c0,3.91-3.1,7.1-6.81,7.9Z"/>
            <path fill="white" class="cls-2" d="M153.12,204.75h-54.43c-3.87-.79-6.97-3.99-6.97-7.9h0c0-3.91,3.1-7.1,6.89-7.1h54.43c3.79,0,6.89,3.2,6.89,7.1h0c0,3.91-3.1,7.1-6.81,7.9Z"/>
            <path fill="white" class="cls-2" d="M153.04,104.4h-54.43c-3.87-.79-6.97-3.99-6.97-7.9h0c0-3.91,3.1-7.1,6.89-7.1h54.43c3.79,0,6.89,3.2,6.89,7.1h0c0,3.91-3.1,7.1-6.81,7.9Z"/>
          </g>
          <g>
            <g>
              <rect fill="white" class="cls-2" x="37.74" y="137.94" width="47.81" height="16.03" rx="8.01" ry="8.01" transform="translate(-85.15 86.34) rotate(-45)"/>
              <rect fill="white" class="cls-2" x="30.08" y="143.94" width="29.45" height="16.03" rx="8.01" ry="8.01" transform="translate(113.25 9.08) rotate(42.03)"/>
            </g>
            <g>
              <rect fill="white" class="cls-2" x="37.91" y="188.55" width="47.81" height="16.03" rx="8.01" ry="8.01" transform="translate(-120.89 101.28) rotate(-45)"/>
              <rect fill="white" class="cls-2" x="30.25" y="194.55" width="29.45" height="16.03" rx="8.01" ry="8.01" transform="translate(147.18 21.99) rotate(42.03)"/>
            </g>
            <g>
              <rect fill="white" class="cls-2" x="37.57" y="84.94" width="47.81" height="16.03" rx="8.01" ry="8.01" transform="translate(-47.72 70.7) rotate(-45)"/>
              <rect fill="white" class="cls-2" x="29.91" y="90.94" width="29.45" height="16.03" rx="8.01" ry="8.01" transform="translate(77.73 -4.44) rotate(42.03)"/>
            </g>
          </g>
        </g>
      </g>
    </g>
  </symbol>
  <symbol id="SettingsIcon" viewBox="0 0 260.03 239.3">
    <g id="_Слой_1-2">
      <g>
        <g>
          <path class="cls-1" d="M70.28,34.94h32.07c1.46,0,2.65,1.19,2.65,2.65v38.06h-36.86v-38.56c0-1.18.96-2.15,2.15-2.15Z"/>
          <path class="cls-1" d="M24.42,54.74h32.07c1.46,0,2.65,1.19,2.65,2.65v38.06H22.28v-38.56c0-1.18.96-2.15,2.15-2.15Z" transform="translate(-41.18 50.78) rotate(-45)"/>
          <path class="cls-1" d="M4.07,100.55h32.07c1.46,0,2.65,1.19,2.65,2.65v38.06H1.92v-38.56c0-1.18.96-2.15,2.15-2.15Z" transform="translate(-100.55 141.26) rotate(-90)"/>
          <path class="cls-1" d="M23.88,146.36h32.07c1.46,0,2.65,1.19,2.65,2.65v38.06H21.73v-38.56c0-1.18.96-2.15,2.15-2.15Z" transform="translate(-49.32 312.99) rotate(-135)"/>
          <path class="cls-1" d="M70.28,166.71h32.07c1.46,0,2.65,1.19,2.65,2.65v38.06h-36.86v-38.56c0-1.18.96-2.15,2.15-2.15Z" transform="translate(173.13 374.13) rotate(-180)"/>
          <path class="cls-1" d="M116.78,147.2h32.07c1.46,0,2.65,1.19,2.65,2.65v38.06h-36.86v-38.56c0-1.18.96-2.15,2.15-2.15Z" transform="translate(345.64 191.95) rotate(135)"/>
          <path class="cls-1" d="M136.37,100.55h32.07c1.46,0,2.65,1.19,2.65,2.65v38.06h-36.86v-38.56c0-1.18.96-2.15,2.15-2.15Z" transform="translate(273.56 -31.75) rotate(90)"/>
          <path class="cls-1" d="M116.04,54.3h32.07c1.46,0,2.65,1.19,2.65,2.65v38.06h-36.86v-38.56c0-1.18.96-2.15,2.15-2.15Z" transform="translate(91.54 -71.7) rotate(45)"/>
          <path class="cls-1" d="M87.32,56.53c-34.87,0-63.13,28.26-63.13,63.13s28.26,63.13,63.13,63.13,63.13-28.26,63.13-63.13-28.26-63.13-63.13-63.13ZM86.56,155.52c-19.45,0-35.21-15.77-35.21-35.21s15.77-35.21,35.21-35.21,35.21,15.77,35.21,35.21-15.77,35.21-35.21,35.21Z"/>
        </g>
        <g>
          <path class="cls-1" d="M216.98,3.77h19.62c1.46,0,2.65,1.19,2.65,2.65v20.04h-24.42V5.91c0-1.18.96-2.15,2.15-2.15Z" transform="translate(36.95 -109.96) rotate(29.53)"/>
          <path class="cls-1" d="M237.78,40.15h19.62c1.46,0,2.65,1.19,2.65,2.65v20.04h-24.42v-20.54c0-1.18.96-2.15,2.15-2.15Z" transform="translate(299.34 -196.35) rotate(90)"/>
          <path class="cls-1" d="M216.35,74.85h19.62c1.46,0,2.65,1.19,2.65,2.65v20.04h-24.42v-20.54c0-1.18.96-2.15,2.15-2.15Z" transform="translate(170.54 -149.54) rotate(55.82)"/>
          <path class="cls-1" d="M175.81,75.26h19.62c1.46,0,2.65,1.19,2.65,2.65v20.04h-24.42v-20.54c0-1.18.96-2.15,2.15-2.15Z" transform="translate(17.93 204.27) rotate(-60)"/>
          <path class="cls-1" d="M177.26,5.38h19.62c1.46,0,2.65,1.19,2.65,2.65v20.04h-24.42V7.53c0-1.18.96-2.15,2.15-2.15Z" transform="translate(22.95 108.12) rotate(-34.18)"/>
          <path class="cls-1" d="M153.94,39.8h19.62c1.46,0,2.65,1.19,2.65,2.65v20.04h-24.42v-20.54c0-1.18.96-2.15,2.15-2.15Z" transform="translate(109.24 213.98) rotate(-88.73)"/>
          <path class="cls-1" d="M207.06,17.24c-18.73,0-33.9,15.18-33.9,33.9s15.18,33.9,33.9,33.9,33.9-15.18,33.9-33.9-15.18-33.9-33.9-33.9ZM206.66,70.41c-10.44,0-18.91-8.47-18.91-18.91s8.47-18.91,18.91-18.91,18.91,8.47,18.91,18.91-8.47,18.91-18.91,18.91Z"/>
        </g>
        <g>
          <path class="cls-1" d="M217.83,140.21h19.62c1.46,0,2.65,1.19,2.65,2.65v20.04h-24.42v-20.54c0-1.18.96-2.15,2.15-2.15Z" transform="translate(104.32 -92.64) rotate(29.53)"/>
          <path class="cls-1" d="M238.63,176.6h19.62c1.46,0,2.65,1.19,2.65,2.65v20.04h-24.42v-20.54c0-1.18.96-2.15,2.15-2.15Z" transform="translate(436.63 -60.75) rotate(90)"/>
          <path class="cls-1" d="M217.19,211.29h19.62c1.46,0,2.65,1.19,2.65,2.65v20.04h-24.42v-20.54c0-1.18.96-2.15,2.15-2.15Z" transform="translate(283.79 -90.44) rotate(55.82)"/>
          <path class="cls-1" d="M176.65,211.71h19.62c1.46,0,2.65,1.19,2.65,2.65v20.04h-24.42v-20.54c0-1.18.96-2.15,2.15-2.15Z" transform="translate(-99.81 273.22) rotate(-60)"/>
          <path class="cls-1" d="M178.11,141.83h19.62c1.46,0,2.65,1.19,2.65,2.65v20.04h-24.42v-20.54c0-1.18.96-2.15,2.15-2.15Z" transform="translate(-53.55 132.15) rotate(-34.18)"/>
          <path class="cls-1" d="M154.78,176.25h19.62c1.46,0,2.65,1.19,2.65,2.65v20.04h-24.42v-20.54c0-1.18.96-2.15,2.15-2.15Z" transform="translate(-26.35 348.25) rotate(-88.73)"/>
          <path class="cls-1" d="M207.9,153.69c-18.73,0-33.9,15.18-33.9,33.9s15.18,33.9,33.9,33.9,33.9-15.18,33.9-33.9-15.18-33.9-33.9-33.9ZM207.5,206.85c-10.44,0-18.91-8.47-18.91-18.91s8.47-18.91,18.91-18.91,18.91,8.47,18.91,18.91-8.47,18.91-18.91,18.91Z"/>
        </g>
      </g>
    </g>
  </symbol>
  <symbol id="CameraIcon" viewBox="0 0 242.94 182.22">
    <g id="_Слой_1-2">
      <g>
        <path class="cls-4" stroke="black" stroke-miterlimit="10"  stroke-width="8" fill="black"  d="M232.61,178.22H10.33c-3.5,0-6.33-2.84-6.33-6.33V37.11c0-3.5,2.84-6.33,6.33-6.33h222.28c3.5,0,6.33,2.84,6.33,6.33v134.78c0,3.5-2.84,6.33-6.33,6.33Z"/>
        <circle class="cls-1" fill="white"  cx="32.56" cy="71.78" r="17.97"/>
        <circle class="cls-2" cx="32.56" cy="71.78" r="8.56"/>
        <circle class="cls-1" fill="white"  cx="139.67" cy="101.44" r="64.56"/>
        <circle class="cls-3" fill="black"  cx="139.67" cy="101.44" r="52.56"/>
        <circle class="cls-1" fill="white"  cx="141" cy="103" r="36.49"/>
        <circle class="cls-3" fill="black"  cx="141" cy="103" r="25.56"/>
        <path class="cls-4" stroke="black" stroke-miterlimit="10"  stroke-width="8" fill="black"  d="M82.22,30.78c4.67,1.67,29.78-26.78,29.78-26.78h52.89s28,30,27.33,26.78"/>
        <path class="cls-3" fill="black"  d="M82.89,35.61c4.5,1.69,30.03-27.44,30.03-27.44h50.96s27.98,30.79,27.34,27.52"/>
        <rect class="cls-1" fill="white"  x="114.12" y="16.99" width="46.22" height="10.11" rx="5.06" ry="5.06"/>
      </g>
    </g>
  </symbol>
  <symbol id="LongShevronIcon" viewBox="0 0 184.81 86.6">
    <g id="_Слой_1-2" >
      <g>
        <path class="cls-1" d="M0,43.3l72,43.3-34.03-43.04c-24.14,0-13.39-.08-37.59-.08,24.2,0,13.45.08,37.59.08L72,0,0,43.3Z"/>
        <path class="cls-1" d="M25.7,34.3h150.11c4.97,0,9,4.03,9,9h0c0,4.97-4.03,9-9,9H25.7v-18h0Z"/>
      </g>
    </g>
  </symbol>
  <symbol id="PenIcon" viewBox="0 0 24.45 24.83">
    <g id="_Слой_1-2" >
      <g>
        <path class="cls-1" d="M18.93.93h2.95c1.52,0,2.75,1.23,2.75,2.75v3.48h-8.45v-3.48c0-1.52,1.23-2.75,2.75-2.75Z" transform="translate(8.84 -13.24) rotate(45)"/>
        <path class="cls-1" d="M20.2,9.63l-5.12-5.12c-.27-.27-.7-.27-.97,0L0,18.61v6.22h0s5.95,0,5.95,0l14.24-14.24c.27-.27.27-.7,0-.97Z"/>
      </g>
    </g>
  </symbol>
  <symbol id="PlusIcon" viewBox="0 0 131.11 131.11">
    <g id="_Слой_1-2">
      <g>
        <rect class="cls-1" x="59.78" width="11.56" height="131.11"/>
        <rect class="cls-1" x="59.78" y="0" width="11.56" height="131.11" transform="translate(131.11 0) rotate(90)"/>
      </g>
    </g>
  </symbol>
  <symbol  id="EyeIcon" viewBox="0 0 256.73 154.44">
    <g id="_Слой_1-2" >
      <g>
        <path class="cls-1" d="M212.09,56.47C166.45,2.95,121.23,0,121.23,0h-25.51C46.91,3.97,4.12,49.86,1.27,55.15c-2.85,5.29,0,7.77,0,7.77,23.56,27.64,64.28,60.85,117.09,55.09,52.81-5.76,92.52-55.09,92.52-55.09.87.14,2.09-6.3,1.22-6.45ZM106.2,104.92c-25.17,0-45.58-20.41-45.58-45.58S81.02,13.75,106.2,13.75s45.58,20.41,45.58,45.58-20.41,45.58-45.58,45.58Z"/>
        <circle class="cls-1" cx="106.2" cy="59.33" r="28.58" transform="translate(-10.79 25.99) rotate(-13.28)"/>
      </g>
    </g>
  </symbol>
  <symbol  id="ReadyIcon" viewBox="0 0 208.08 151.68">
    <g id="_Слой_1-2" >
      <g>
        <path class="cls-1" d="M73.74,146.96l-12.28-12.45L193.44,2.54c3.36-3.36,8.79-3.38,12.13-.05h0c3.34,3.34,3.32,8.77.15,12.49L73.74,146.96Z"/>
        <path class="cls-1" d="M77.81,143.15l-5.73,5.79c-3.61,3.64-9.49,3.66-13.11.04L2.55,92.56c-3.39-3.39-3.41-8.89-.03-12.3h0c3.4-3.44,8.95-3.45,12.37-.03l62.92,62.92Z"/>
      </g>
    </g>
  </symbol>
  <symbol id="ClockIcon" viewBox="0 0 40.22 40.22">
    <g id="_Слой_1-2" >
      <path class="cls-1" d="M20.11,0C9,0,0,9,0,20.11s9,20.11,20.11,20.11,20.11-9,20.11-20.11S31.22,0,20.11,0ZM27.22,29.86l-10.16-6.6.02-.03h-.02v-12.67h3.5v10.5l8.71,5.66-2.04,3.14Z"/>
    </g>
  </symbol>
  <symbol id="RefreshIcon" viewBox="0 0 41.56 52.85">
    <g id="_Слой_1-2" >
      <g>
        <path class="cls-1" d="M41.53,30.94c-.55-10.47-9.13-19.06-19.6-19.62-.49-.03-.97-.02-1.45-.02v4.34c.91-.02,1.83.02,2.77.16,7.28,1.06,13.04,7.03,13.87,14.35,1.12,9.94-6.62,18.36-16.34,18.36-9.08,0-16.44-7.36-16.44-16.44,0-.04,0-.08,0-.12H0s0,0,0,0c-.06,11.53,9.26,20.9,20.78,20.9s21.38-9.92,20.75-21.9Z"/>
        <polygon class="cls-1" points="6.72 13.6 20.77 26.83 20.77 0 6.72 13.6"/>
      </g>
    </g>
  </symbol>
  <symbol id="RaitingStar" viewBox="0 0 90.26 86.28">
    <g id="_Слой_1-2">
      <path class="cls-1" d="M48.12,1.56l13.07,24.41c.45.85,1.29,1.42,2.25,1.54l24.22,2.94c2.41.29,3.46,3.21,1.78,4.97l-17.23,18.01c-.61.63-.9,1.51-.8,2.38l3.05,26.56c.27,2.31-2.13,4.01-4.22,2.99l-23.44-11.4c-.83-.4-1.79-.4-2.62.02l-23.88,11.99c-2.12,1.06-4.56-.67-4.25-3.02l3.48-26.66c.12-.89-.18-1.78-.8-2.43L.83,35.3c-1.67-1.73-.68-4.61,1.69-4.97l26.13-3.9c.94-.14,1.75-.72,2.19-1.56L42.9,1.59c1.09-2.11,4.1-2.13,5.22-.04Z"/>
    </g>
  </symbol>
  <symbol id="ToolTipWordIIcon" viewBox="0 0 43.33 43.33">
    <g id="_Слой_1-2">
      <g>
        <circle fill="black" opacity="0.3" class="cls-2" cx="21.67" cy="21.67" r="21.67"/>
        <g fill="white">
          <polygon class="cls-1" points="14.5 14.92 14.5 20.33 17.83 20.33 17.83 29.42 14.5 29.42 14.5 35.25 28.25 35.25 28.25 29.58 25.58 29.5 25.5 14.5 14.5 14.5 14.5 14.92"/>
          <circle class="cls-1" cx="21.67" cy="7.58" r="4.5"/>
        </g>
      </g>
    </g>
  </symbol>
  <symbol id="PlaybuttonIcon" viewBox="0 0 100 100">
    <g id="_Слой_1-2">
      <g>
        <polygon class="cls-2" points=".5 .81 98.88 50 .5 99.19 .5 .81"/>
        <path class="cls-1" d="M1,1.62l96.76,48.38L1,98.38V1.62M0,0v100l100-50L0,0h0Z"/>
      </g>
    </g>
  </symbol>
  <symbol id="ListMenuIcon"  viewBox="0 0 100 100">
    <g id="_Слой_1-2" >
      <g>
        <g>
          <rect class="cls-2" x=".5" y=".5" width="24" height="24" rx="4.5" ry="4.5"/>
          <path class="cls-1" d="M20,1c2.21,0,4,1.79,4,4v15c0,2.21-1.79,4-4,4H5c-2.21,0-4-1.79-4-4V5C1,2.79,2.79,1,5,1h15M20,0H5C2.24,0,0,2.24,0,5v15c0,2.76,2.24,5,5,5h15c2.76,0,5-2.24,5-5V5c0-2.76-2.24-5-5-5h0Z"/>
        </g>
        <g>
          <rect class="cls-2" x="38" y=".5" width="24" height="24" rx="4.5" ry="4.5"/>
          <path class="cls-1" d="M57.5,1c2.21,0,4,1.79,4,4v15c0,2.21-1.79,4-4,4h-15c-2.21,0-4-1.79-4-4V5c0-2.21,1.79-4,4-4h15M57.5,0h-15c-2.76,0-5,2.24-5,5v15c0,2.76,2.24,5,5,5h15c2.76,0,5-2.24,5-5V5c0-2.76-2.24-5-5-5h0Z"/>
        </g>
        <g>
          <rect class="cls-2" x="75.5" y=".5" width="24" height="24" rx="4.5" ry="4.5"/>
          <path class="cls-1" d="M95,1c2.21,0,4,1.79,4,4v15c0,2.21-1.79,4-4,4h-15c-2.21,0-4-1.79-4-4V5c0-2.21,1.79-4,4-4h15M95,0h-15c-2.76,0-5,2.24-5,5v15c0,2.76,2.24,5,5,5h15c2.76,0,5-2.24,5-5V5c0-2.76-2.24-5-5-5h0Z"/>
        </g>
        <g>
          <rect class="cls-2" x=".5" y="38" width="24" height="24" rx="4.5" ry="4.5"/>
          <path class="cls-1" d="M20,38.5c2.21,0,4,1.79,4,4v15c0,2.21-1.79,4-4,4H5c-2.21,0-4-1.79-4-4v-15c0-2.21,1.79-4,4-4h15M20,37.5H5c-2.76,0-5,2.24-5,5v15c0,2.76,2.24,5,5,5h15c2.76,0,5-2.24,5-5v-15c0-2.76-2.24-5-5-5h0Z"/>
        </g>
        <g>
          <rect class="cls-2" x="38" y="38" width="24" height="24" rx="4.5" ry="4.5"/>
          <path class="cls-1" d="M57.5,38.5c2.21,0,4,1.79,4,4v15c0,2.21-1.79,4-4,4h-15c-2.21,0-4-1.79-4-4v-15c0-2.21,1.79-4,4-4h15M57.5,37.5h-15c-2.76,0-5,2.24-5,5v15c0,2.76,2.24,5,5,5h15c2.76,0,5-2.24,5-5v-15c0-2.76-2.24-5-5-5h0Z"/>
        </g>
        <g>
          <rect class="cls-2" x="75.5" y="38" width="24" height="24" rx="4.5" ry="4.5"/>
          <path class="cls-1" d="M95,38.5c2.21,0,4,1.79,4,4v15c0,2.21-1.79,4-4,4h-15c-2.21,0-4-1.79-4-4v-15c0-2.21,1.79-4,4-4h15M95,37.5h-15c-2.76,0-5,2.24-5,5v15c0,2.76,2.24,5,5,5h15c2.76,0,5-2.24,5-5v-15c0-2.76-2.24-5-5-5h0Z"/>
        </g>
        <g>
          <rect class="cls-2" x=".5" y="75.5" width="24" height="24" rx="4.5" ry="4.5"/>
          <path class="cls-1" d="M20,76c2.21,0,4,1.79,4,4v15c0,2.21-1.79,4-4,4H5c-2.21,0-4-1.79-4-4v-15c0-2.21,1.79-4,4-4h15M20,75H5c-2.76,0-5,2.24-5,5v15c0,2.76,2.24,5,5,5h15c2.76,0,5-2.24,5-5v-15c0-2.76-2.24-5-5-5h0Z"/>
        </g>
        <g>
          <rect class="cls-2" x="38" y="75.5" width="24" height="24" rx="4.5" ry="4.5"/>
          <path class="cls-1" d="M57.5,76c2.21,0,4,1.79,4,4v15c0,2.21-1.79,4-4,4h-15c-2.21,0-4-1.79-4-4v-15c0-2.21,1.79-4,4-4h15M57.5,75h-15c-2.76,0-5,2.24-5,5v15c0,2.76,2.24,5,5,5h15c2.76,0,5-2.24,5-5v-15c0-2.76-2.24-5-5-5h0Z"/>
        </g>
        <g>
          <rect class="cls-2" x="75.5" y="75.5" width="24" height="24" rx="4.5" ry="4.5"/>
          <path class="cls-1" d="M95,76c2.21,0,4,1.79,4,4v15c0,2.21-1.79,4-4,4h-15c-2.21,0-4-1.79-4-4v-15c0-2.21,1.79-4,4-4h15M95,75h-15c-2.76,0-5,2.24-5,5v15c0,2.76,2.24,5,5,5h15c2.76,0,5-2.24,5-5v-15c0-2.76-2.24-5-5-5h0Z"/>
        </g>
      </g>
    </g>
  </symbol>
  <symbol id="pauseBtnIcon" viewBox="0 0 55.89 100">
    <g id="_Слой_1-2" >
      <g>
        <g>
          <rect class="cls-2" x=".5" y=".5" width="20.44" height="99"/>
          <path class="cls-1" d="M20.44,1v98H1V1h19.44M21.44,0H0v100h21.44V0h0Z"/>
        </g>
        <g>
          <rect class="cls-2" x="34.94" y=".5" width="20.44" height="99"/>
          <path class="cls-1" d="M54.89,1v98h-19.44V1h19.44M55.89,0h-21.44v100h21.44V0h0Z"/>
        </g>
      </g>
    </g>
  </symbol>
  <symbol id="EyeCrossedIcon" viewBox="0 0 215.96 218.12">
    <g>
      <g>
        <g>
          <path class="cls-2" d="M213.87,108.23c-45.64-53.52-90.86-56.47-90.86-56.47h-25.51C48.69,55.73,5.9,101.62,3.05,106.91s0,7.77,0,7.77c23.56,27.64,64.28,60.85,117.09,55.09,52.81-5.76,92.52-55.09,92.52-55.09.87.14,2.09-6.3,1.22-6.45h0ZM107.98,156.68c-25.17,0-45.58-20.41-45.58-45.58s20.4-45.59,45.58-45.59,45.58,20.41,45.58,45.58-20.41,45.58-45.58,45.58h0Z"/>
          <circle class="cls-2" cx="107.98" cy="111.09" r="28.58"/>
        </g>
      </g>
      <rect class="cls-1" x="-31.34" y="94.91" width="278.65" height="28.3" transform="translate(109.68 -44.4) rotate(45.35)"/>
    </g>
  </symbol>
  <symbol id="BoldIcon" viewBox="0 0 202 202">
    <g>
      <path d="M148.004,94.812c18.332-8.126,28.671-23.362,28.671-42.752c0-17.261-6.954-31.206-20.11-40.328
        C145.653,4.166,130.438,0,113.721,0H16.957v34h17v134h-17v34h90.905c14.819,0,35.992-2.245,52.705-12.94
        c16.241-10.393,24.476-26.161,24.476-46.868C185.043,118.342,171.057,100.763,148.004,94.812z M103.12,80H73.957V34h26.096
        c25.961,0,36.551,6.34,36.551,21.884C136.604,75.816,118.396,80,103.12,80z M73.957,115h30.838c28.537,0,40.177,7.436,40.177,25.663
        c0,18.14-13.987,27.337-41.572,27.337H73.957V115z"/>
    </g>
  </symbol>
  <symbol id="CrossedOutIcon"   viewBox="0 0 335 335">
    <g>
      <path d="M335,152.5H168.849c-51.776-8.496-83.471-15.845-83.471-53.723C85.377,59.084,129.616,45,167.5,45
	c40.518,0,70.98,14.602,79.5,38.106l28.204-10.223c-6.792-18.74-21.263-33.998-41.847-44.125C215.059,19.758,192.286,15,167.5,15
	C100.436,15,55.377,48.668,55.377,98.777c0,22.519,7.594,40.513,22.602,53.723H0v30h166.393c51.633,8.48,83.23,15.876,83.23,53.723
	c0,39.693-44.239,53.777-82.123,53.777c-40.531,0-70.997-14.609-79.506-38.127l-28.21,10.209
	c6.785,18.75,21.254,34.018,41.843,44.15C119.927,315.239,142.706,320,167.5,320c67.064,0,112.123-33.668,112.123-83.777
	c0-22.515-7.585-40.509-22.575-53.723H335V152.5z"/>
    </g>
  </symbol>
  <symbol id="ItalicsIcon"  viewBox="0 0 29.538 29.538">
    <g>
      <path d="M11.305,0.807L11.544,0h14.422l-0.284,0.807c-1.307,0-2.305,0.289-2.994,0.871c-0.688,0.58-1.297,1.793-1.818,3.637
		l-5.401,18.908c-0.394,1.336-0.589,2.23-0.589,2.68c0,0.523,0.204,0.931,0.609,1.222c0.521,0.377,1.512,0.58,2.964,0.608
		l-0.22,0.806H3.572l0.24-0.806c1.467,0,2.541-0.28,3.225-0.838c0.683-0.561,1.3-1.783,1.852-3.672l5.446-18.908
		c0.333-1.162,0.501-2.041,0.501-2.635c0-0.537-0.203-0.959-0.609-1.266C13.817,1.11,12.844,0.909,11.305,0.807z"/>
    </g>
  </symbol>
  <symbol id="UnderLinedIcon"  viewBox="0 0 360 360">
    <g>
      <rect x="62.877" y="330" width="234.245" height="30"/>
      <path d="M180,290c61.825,0,112.123-50.298,112.123-112.122V0h-30v177.878C262.123,223.16,225.283,260,180,260
		s-82.123-36.84-82.123-82.122V0h-30v177.878C67.877,239.702,118.175,290,180,290z"/>
    </g>
  </symbol>
  <symbol id="dislikeIcon" viewBox="0 0 24 24">
    <g>
      <path fill-rule="evenodd" clip-rule="evenodd" d="M8.1 20.5c0 1.5 1.482 2.5 2.64 2.5.806 0 .869-.613.993-1.82.055-.53.121-1.174.267-1.93.386-2.002 1.72-4.56 2.996-5.325V8C15 5.75 14.25 5 11 5H7.227C5.051 5 4.524 6.432 4.328 6.964A15.85 15.85 0 0 1 4.315 7c-.114.306-.358.546-.638.82-.31.306-.664.653-.927 1.18-.311.623-.27 1.177-.233 1.67.023.299.044.575-.017.83-.064.27-.146.475-.225.671-.143.356-.275.686-.275 1.329 0 1.5.748 2.498 2.315 2.498H8.5S8.1 19 8.1 20.5zM18.5 15a1.5 1.5 0 0 0 1.5-1.5v-7a1.5 1.5 0 0 0-3 0v7a1.5 1.5 0 0 0 1.5 1.5z" />
    </g>
  </symbol>
  <symbol id="likeIcon" viewBox="0 0 24 24">
    <g>
      <path fill-rule="evenodd" clip-rule="evenodd" d="M15.9 4.5C15.9 3 14.418 2 13.26 2c-.806 0-.869.612-.993 1.82-.055.53-.121 1.174-.267 1.93-.386 2.002-1.72 4.56-2.996 5.325V17C9 19.25 9.75 20 13 20h3.773c2.176 0 2.703-1.433 2.899-1.964l.013-.036c.114-.306.358-.547.638-.82.31-.306.664-.653.927-1.18.311-.623.27-1.177.233-1.67-.023-.299-.044-.575.017-.83.064-.27.146-.475.225-.671.143-.356.275-.686.275-1.329 0-1.5-.748-2.498-2.315-2.498H15.5S15.9 6 15.9 4.5zM5.5 10A1.5 1.5 0 0 0 4 11.5v7a1.5 1.5 0 0 0 3 0v-7A1.5 1.5 0 0 0 5.5 10z" />
    </g>
  </symbol>
  <symbol id="threeDotIcon" viewBox="0 0 16 16">
    <g>
      <path d="M9.5 13a1.5 1.5 0 1 1-3 0 1.5 1.5 0 0 1 3 0zm0-5a1.5 1.5 0 1 1-3 0 1.5 1.5 0 0 1 3 0zm0-5a1.5 1.5 0 1 1-3 0 1.5 1.5 0 0 1 3 0z"/>
    </g>
  </symbol>
  <symbol id="deleteIcon" viewBox="0 0 900.5 900.5">
    <g>
      <path d="M176.415,880.5c0,11.046,8.954,20,20,20h507.67c11.046,0,20-8.954,20-20V232.487h-547.67V880.5L176.415,880.5z
		 M562.75,342.766h75v436.029h-75V342.766z M412.75,342.766h75v436.029h-75V342.766z M262.75,342.766h75v436.029h-75V342.766z"/>
      <path d="M618.825,91.911V20c0-11.046-8.954-20-20-20h-297.15c-11.046,0-20,8.954-20,20v71.911v12.5v12.5H141.874
		c-11.046,0-20,8.954-20,20v50.576c0,11.045,8.954,20,20,20h34.541h547.67h34.541c11.046,0,20-8.955,20-20v-50.576
		c0-11.046-8.954-20-20-20H618.825v-12.5V91.911z M543.825,112.799h-187.15v-8.389v-12.5V75h187.15v16.911v12.5V112.799z"/>
    </g>
  </symbol>
</svg>