<svg xmlns="http://www.w3.org/2000/svg" style="display: none;">
  <symbol id="SearchIcon" viewBox="0 0 58.95 57.55">
    <g id="_Слой_6">
      <g>
        <circle class="cls-2" cx="20.81" cy="20.81" r="19.81"/>
        <rect class="cls-1" x="32.8" y="43.26" width="27.43" height="3.73" transform="translate(45.53 -19.68) rotate(45)"/>
      </g>
    </g>
  </symbol>
  <symbol id="SearchIconPCVersion" viewBox="0 0 19.11 18.63">
    <g id="_Слой_1-2">
      <g>
        <g>
          <path class="cls-2" d="M7.26,14.01c-3.73,0-6.76-3.03-6.76-6.76S3.53.5,7.26.5s6.76,3.03,6.76,6.76-3.03,6.76-6.76,6.76Z"/>
          <path class="cls-1" d="M7.26,1c3.45,0,6.26,2.81,6.26,6.26s-2.81,6.26-6.26,6.26S1,10.71,1,7.26,3.81,1,7.26,1M7.26,0C3.25,0,0,3.25,0,7.26s3.25,7.26,7.26,7.26,7.26-3.25,7.26-7.26S11.27,0,7.26,0h0Z"/>
        </g>
        <g>
          <rect class="cls-1" x="14.68" y="11.04" width="1.24" height="7.54" transform="translate(-5.99 15.14) rotate(-44.97)"/>
          <path class="cls-1" d="M13.07,12.41l4.63,4.63-.17.17-4.63-4.63.17-.17M13.07,11l-1.58,1.58,6.04,6.04,1.58-1.58-6.04-6.04h0Z"/>
        </g>
      </g>
    </g>
  </symbol>
  <symbol id="CloseBtnIcon" viewBox="0 0 20.04 20.04">
    <g id="_Слой_1-2" >
      <g>
        <line class="cls-1" x1="1.06" y1="1.06" x2="18.98" y2="18.98"/>
        <line class="cls-1" x1="18.98" y1="1.06" x2="1.06" y2="18.98"/>
      </g>
    </g>
  </symbol>
  <symbol id="friendsIcon" viewBox="0 0 232.08 172.36">
    <g id="_Слой_1-2">
      <g>
        <circle class="cls-1" cx="73.62" cy="61.22" r="41.33"/>
        <circle class="cls-1" cx="158.82" cy="40.89" r="40.89"/>
        <path class="cls-1" d="M230.79,137.85s-.04,11.81-11.34,12.35l-64,.07c.69-1.09.71-.94.73-.81-1.68-7.55-11.93-41.09-53.26-49.66,0,0,25.87-19.06,70.76-13.95s63.74,25.79,57.11,52Z"/>
        <path class="cls-1" d="M156.18,149.5c.41,1.84.3,2.09,0,0h0Z"/>
        <path class="cls-1" d="M74.58,107.14c2.02-.11,61.37.11,69.67,33.83,9.06,36.83-18.93,28.59-23.79,31.39l-106.17-.5c.35-.86-9.51-.23-13.21-13.05-3.8-13.2-1.4-52.71,73.5-51.67Z"/>
      </g>
    </g>
  </symbol>
  <symbol id="messegesBell" viewBox="0 0 237.54 222.94">
    <g id="_Слой_1-2" >
      <g>
        <path class="cls-1" d="M92.1,201.85c0,1.83.19,3.68.59,5.53,3.07,14.41,17.24,23.6,31.64,20.52,12.53-2.67,21.11-13.74,21.11-26.06h-53.34Z"/>
        <path class="cls-1" d="M237.36,182.9c2.22,13.78-16.44,18.95-16.44,18.95h-67.22l-72.78-.28s-50.22,1.33-66.22-1.78S.03,182.46.03,182.46c44-44.44,47.56-77.33,47.11-75.56s3.11-1.33,7.56-56.44S116.03.24,116.03.24c0,0,57.78-6.22,66.22,45.33,0,0-5.85,87.13,52.82,136.02l2.29,1.31Z"/>
      </g>
    </g>
  </symbol>
  <symbol id="toolTipIcon"  viewBox="0 0 251.56 251.56">
    <g id="_Слой_1-2">
      <g>
        <circle opacity="70%" fill="gray" class="cls-2" cx="125.78" cy="125.78" r="117.78"/>
        <g>
          <path fill="white" class="cls-1" d="M83.86,98.74s15.56,7.78,22-11.11,29.33-11.78,29.33-11.78c0,0,18,10.89,4.89,27.33s-31.33,16.67-29.78,39.78c0,0,4.44,16.44,20.22,7.33,0,0,4.89-2.44,8.44-14.67,0,0,40.67-26.22,35.56-45.11,0,0,2.22-22.22-23.56-34s-80.67-.22-71.33,38"/>
          <circle fill="white"  class="cls-1" cx="123.49" cy="181.83" r="17.33"/>
        </g>
      </g>
    </g>
  </symbol>
  <symbol id="2x2SetkaIcon" viewBox="0 0 100 100">
    <g id="_Слой_1-2">
      <g>
        <rect display="none" class="cls-2" width="100" height="100"/>
        <g>
          <rect class="cls-1" x=".04" y=".04" width="48.12" height="48.13"/>
          <rect class="cls-1" x="52" y="52" width="48" height="48"/>
          <rect class="cls-1" x="52" y=".04" width="48" height="48.13"/>
          <rect class="cls-1" x=".04" y="52" width="48.12" height="48"/>
        </g>
      </g>
    </g>
  </symbol>
  <symbol id="2x3SetkaIcon" viewBox="0 0 100 100">
    <g id="_Слой_1-2" >
      <g>
        <rect class="cls-1" width="30.17" height="30.17" rx="3.33" ry="3.33"/>
        <rect class="cls-1" x="40" width="60" height="30.17" rx="1.83" ry="1.83"/>
        <rect class="cls-1" x="40" y="34.92" width="60" height="30.17" rx="2.88" ry="2.88"/>
        <rect class="cls-1" x="40" y="69.83" width="60" height="30.17" rx="3" ry="3"/>
        <rect class="cls-1" y="69.83" width="30.17" height="30.17" rx="3.58" ry="3.58"/>
        <rect class="cls-1" y="34.92" width="30.17" height="30.17" rx="3.04" ry="3.04"/>
      </g>
    </g>
  </symbol>
  <symbol id="3x3SetkaIcon" viewBox="0 0 100 100">
    <g id="_Слой_1-2" >
      <g>
        <rect class="cls-1" y="0" width="30.17" height="30.17" rx="3.33" ry="3.33"/>
        <rect class="cls-1" y="69.83" width="30.17" height="30.17" rx="3.58" ry="3.58"/>
        <rect class="cls-1" y="34.92" width="30.17" height="30.17" rx="3.04" ry="3.04"/>
        <rect class="cls-1" x="34.92" width="30.17" height="30.17" rx="3.33" ry="3.33"/>
        <rect class="cls-1" x="34.92" y="69.83" width="30.17" height="30.17" rx="3.58" ry="3.58"/>
        <rect class="cls-1" x="34.92" y="34.92" width="30.17" height="30.17" rx="3.04" ry="3.04"/>
        <rect class="cls-1" x="69.83" y="0" width="30.17" height="30.17" rx="3.33" ry="3.33"/>
        <rect class="cls-1" x="69.83" y="69.83" width="30.17" height="30.17" rx="3.58" ry="3.58"/>
        <rect class="cls-1" x="69.83" y="34.92" width="30.17" height="30.17" rx="3.04" ry="3.04"/>
      </g>
    </g>
  </symbol>
  <symbol id="ShevronIcon" viewBox="0 0 144.55 256">
    <g id="_Слой_1-2">
      <path class="cls-1" d="M1.35,22.69c-.09,0-7.86-29.57,24.03-21.19l115.83,115.83s7.83,12-.5,19.94L25.37,253.77S7.55,263.49.05,242.33c0,0-1.17-13.17,8.33-17.17l95.5-95.5s4.17-2.33-1.03-4.81L1.35,22.69Z"/>
    </g>
  </symbol>
  <symbol id="OptionsIcon" viewBox="0 0 100.33 91.45">
    <g id="_Слой_1-2" >
      <g>
        <rect class="cls-1" x=".33" y="12.62" width="100" height="8.76"/>
        <rect class="cls-1" x=".33" y="44.75" width="100" height="8.76"/>
        <polygon class="cls-1" points="100.33 86.45 .33 86.45 0 77.69 100 77.69 100.33 86.45"/>
        <rect class="cls-1" x="12.67" y="33.91" width="8.44" height="34" rx="2.64" ry="2.64"/>
        <rect class="cls-1" x="86.67" width="8.44" height="34" rx="2.76" ry="2.76"/>
        <rect class="cls-1" x="71.11" y="63.45" width="8.44" height="34" rx="2.65" ry="2.65"/>
      </g>
    </g>
  </symbol>
  <symbol id="HomePageIcon" viewBox="0 0 254.24 254.13">
    <g id="_Слой_1-2" >
      <g>
        <path class="cls-1" d="M31.34,136.74v101.53c0,9.09,7.38,16.45,16.05,15.82l53.62-.12-.22-78.26c0-2.76,2.24-5,5-5h42.67c2.76,0,5,2.24,5,5l.22,78.13,52.8-.12c9.27.59,16.43-6.59,16.43-15.44v-101.99l-191.56.44Z"/>
        <path class="cls-1" d="M120.89,2.49L4.91,111.03c-10.19,9.54-3.44,26.63,10.52,26.63h223.31c14.03,0,20.82-17.18,10.57-26.77L133.48,2.49c-3.54-3.32-9.05-3.32-12.59,0Z"/>
      </g>
    </g>
  </symbol>
  <symbol id="ListIcon" viewBox="0 0 196.25 256.03">
    <g id="_Слой_1-2">
      <g>
        <g>
          <rect fill="black" class="cls-1" x="47.79" width="100.67" height="30.25" rx="4.25" ry="4.25"/>
          <path fill="black" class="cls-1" d="M31.93,15.12h-14.34c-.11,0-.22.01-.33.04-1.65.4-14.66,4.02-17.19,17.92-.02.09-.03.19-.03.28L0,238.01s0,.08,0,.12c.1,1.13,1.85,17.9,21.42,17.9h156.86c.18,0,.34-.1.52-.1,3.03-.06,18.28-6.67,17.42-20.03V34.72c0-5.22-1.72-10.35-5.11-14.32s-7.72-5.93-14.16-5.28c-.04,0-.08,0-.13,0l-11.85-.1c-.78,0-1.42.63-1.42,1.41l.05,15.28c0,.13-.02.26-.05.38-.37,1.29-2.9,8.62-13.85,13.08-.17.07-.36.11-.55.11l-101.32-.06c-.19,0-.37-.04-.55-.11-1.8-.78-12.31-5.63-13.98-14.07-.02-.1-.03-.21-.03-.31l.06-14.21c0-.78-.63-1.41-1.41-1.41Z"/>
        </g>
        <g>
          <g>
            <path fill="white" class="cls-2" d="M153.12,154.31h-54.43c-3.87-.79-6.97-3.99-6.97-7.9h0c0-3.91,3.1-7.1,6.89-7.1h54.43c3.79,0,6.89,3.2,6.89,7.1h0c0,3.91-3.1,7.1-6.81,7.9Z"/>
            <path fill="white" class="cls-2" d="M153.12,204.75h-54.43c-3.87-.79-6.97-3.99-6.97-7.9h0c0-3.91,3.1-7.1,6.89-7.1h54.43c3.79,0,6.89,3.2,6.89,7.1h0c0,3.91-3.1,7.1-6.81,7.9Z"/>
            <path fill="white" class="cls-2" d="M153.04,104.4h-54.43c-3.87-.79-6.97-3.99-6.97-7.9h0c0-3.91,3.1-7.1,6.89-7.1h54.43c3.79,0,6.89,3.2,6.89,7.1h0c0,3.91-3.1,7.1-6.81,7.9Z"/>
          </g>
          <g>
            <g>
              <rect fill="white" class="cls-2" x="37.74" y="137.94" width="47.81" height="16.03" rx="8.01" ry="8.01" transform="translate(-85.15 86.34) rotate(-45)"/>
              <rect fill="white" class="cls-2" x="30.08" y="143.94" width="29.45" height="16.03" rx="8.01" ry="8.01" transform="translate(113.25 9.08) rotate(42.03)"/>
            </g>
            <g>
              <rect fill="white" class="cls-2" x="37.91" y="188.55" width="47.81" height="16.03" rx="8.01" ry="8.01" transform="translate(-120.89 101.28) rotate(-45)"/>
              <rect fill="white" class="cls-2" x="30.25" y="194.55" width="29.45" height="16.03" rx="8.01" ry="8.01" transform="translate(147.18 21.99) rotate(42.03)"/>
            </g>
            <g>
              <rect fill="white" class="cls-2" x="37.57" y="84.94" width="47.81" height="16.03" rx="8.01" ry="8.01" transform="translate(-47.72 70.7) rotate(-45)"/>
              <rect fill="white" class="cls-2" x="29.91" y="90.94" width="29.45" height="16.03" rx="8.01" ry="8.01" transform="translate(77.73 -4.44) rotate(42.03)"/>
            </g>
          </g>
        </g>
      </g>
    </g>
  </symbol>
  <symbol id="SettingsIcon" viewBox="0 0 260.03 239.3">
    <g id="_Слой_1-2">
      <g>
        <g>
          <path class="cls-1" d="M70.28,34.94h32.07c1.46,0,2.65,1.19,2.65,2.65v38.06h-36.86v-38.56c0-1.18.96-2.15,2.15-2.15Z"/>
          <path class="cls-1" d="M24.42,54.74h32.07c1.46,0,2.65,1.19,2.65,2.65v38.06H22.28v-38.56c0-1.18.96-2.15,2.15-2.15Z" transform="translate(-41.18 50.78) rotate(-45)"/>
          <path class="cls-1" d="M4.07,100.55h32.07c1.46,0,2.65,1.19,2.65,2.65v38.06H1.92v-38.56c0-1.18.96-2.15,2.15-2.15Z" transform="translate(-100.55 141.26) rotate(-90)"/>
          <path class="cls-1" d="M23.88,146.36h32.07c1.46,0,2.65,1.19,2.65,2.65v38.06H21.73v-38.56c0-1.18.96-2.15,2.15-2.15Z" transform="translate(-49.32 312.99) rotate(-135)"/>
          <path class="cls-1" d="M70.28,166.71h32.07c1.46,0,2.65,1.19,2.65,2.65v38.06h-36.86v-38.56c0-1.18.96-2.15,2.15-2.15Z" transform="translate(173.13 374.13) rotate(-180)"/>
          <path class="cls-1" d="M116.78,147.2h32.07c1.46,0,2.65,1.19,2.65,2.65v38.06h-36.86v-38.56c0-1.18.96-2.15,2.15-2.15Z" transform="translate(345.64 191.95) rotate(135)"/>
          <path class="cls-1" d="M136.37,100.55h32.07c1.46,0,2.65,1.19,2.65,2.65v38.06h-36.86v-38.56c0-1.18.96-2.15,2.15-2.15Z" transform="translate(273.56 -31.75) rotate(90)"/>
          <path class="cls-1" d="M116.04,54.3h32.07c1.46,0,2.65,1.19,2.65,2.65v38.06h-36.86v-38.56c0-1.18.96-2.15,2.15-2.15Z" transform="translate(91.54 -71.7) rotate(45)"/>
          <path class="cls-1" d="M87.32,56.53c-34.87,0-63.13,28.26-63.13,63.13s28.26,63.13,63.13,63.13,63.13-28.26,63.13-63.13-28.26-63.13-63.13-63.13ZM86.56,155.52c-19.45,0-35.21-15.77-35.21-35.21s15.77-35.21,35.21-35.21,35.21,15.77,35.21,35.21-15.77,35.21-35.21,35.21Z"/>
        </g>
        <g>
          <path class="cls-1" d="M216.98,3.77h19.62c1.46,0,2.65,1.19,2.65,2.65v20.04h-24.42V5.91c0-1.18.96-2.15,2.15-2.15Z" transform="translate(36.95 -109.96) rotate(29.53)"/>
          <path class="cls-1" d="M237.78,40.15h19.62c1.46,0,2.65,1.19,2.65,2.65v20.04h-24.42v-20.54c0-1.18.96-2.15,2.15-2.15Z" transform="translate(299.34 -196.35) rotate(90)"/>
          <path class="cls-1" d="M216.35,74.85h19.62c1.46,0,2.65,1.19,2.65,2.65v20.04h-24.42v-20.54c0-1.18.96-2.15,2.15-2.15Z" transform="translate(170.54 -149.54) rotate(55.82)"/>
          <path class="cls-1" d="M175.81,75.26h19.62c1.46,0,2.65,1.19,2.65,2.65v20.04h-24.42v-20.54c0-1.18.96-2.15,2.15-2.15Z" transform="translate(17.93 204.27) rotate(-60)"/>
          <path class="cls-1" d="M177.26,5.38h19.62c1.46,0,2.65,1.19,2.65,2.65v20.04h-24.42V7.53c0-1.18.96-2.15,2.15-2.15Z" transform="translate(22.95 108.12) rotate(-34.18)"/>
          <path class="cls-1" d="M153.94,39.8h19.62c1.46,0,2.65,1.19,2.65,2.65v20.04h-24.42v-20.54c0-1.18.96-2.15,2.15-2.15Z" transform="translate(109.24 213.98) rotate(-88.73)"/>
          <path class="cls-1" d="M207.06,17.24c-18.73,0-33.9,15.18-33.9,33.9s15.18,33.9,33.9,33.9,33.9-15.18,33.9-33.9-15.18-33.9-33.9-33.9ZM206.66,70.41c-10.44,0-18.91-8.47-18.91-18.91s8.47-18.91,18.91-18.91,18.91,8.47,18.91,18.91-8.47,18.91-18.91,18.91Z"/>
        </g>
        <g>
          <path class="cls-1" d="M217.83,140.21h19.62c1.46,0,2.65,1.19,2.65,2.65v20.04h-24.42v-20.54c0-1.18.96-2.15,2.15-2.15Z" transform="translate(104.32 -92.64) rotate(29.53)"/>
          <path class="cls-1" d="M238.63,176.6h19.62c1.46,0,2.65,1.19,2.65,2.65v20.04h-24.42v-20.54c0-1.18.96-2.15,2.15-2.15Z" transform="translate(436.63 -60.75) rotate(90)"/>
          <path class="cls-1" d="M217.19,211.29h19.62c1.46,0,2.65,1.19,2.65,2.65v20.04h-24.42v-20.54c0-1.18.96-2.15,2.15-2.15Z" transform="translate(283.79 -90.44) rotate(55.82)"/>
          <path class="cls-1" d="M176.65,211.71h19.62c1.46,0,2.65,1.19,2.65,2.65v20.04h-24.42v-20.54c0-1.18.96-2.15,2.15-2.15Z" transform="translate(-99.81 273.22) rotate(-60)"/>
          <path class="cls-1" d="M178.11,141.83h19.62c1.46,0,2.65,1.19,2.65,2.65v20.04h-24.42v-20.54c0-1.18.96-2.15,2.15-2.15Z" transform="translate(-53.55 132.15) rotate(-34.18)"/>
          <path class="cls-1" d="M154.78,176.25h19.62c1.46,0,2.65,1.19,2.65,2.65v20.04h-24.42v-20.54c0-1.18.96-2.15,2.15-2.15Z" transform="translate(-26.35 348.25) rotate(-88.73)"/>
          <path class="cls-1" d="M207.9,153.69c-18.73,0-33.9,15.18-33.9,33.9s15.18,33.9,33.9,33.9,33.9-15.18,33.9-33.9-15.18-33.9-33.9-33.9ZM207.5,206.85c-10.44,0-18.91-8.47-18.91-18.91s8.47-18.91,18.91-18.91,18.91,8.47,18.91,18.91-8.47,18.91-18.91,18.91Z"/>
        </g>
      </g>
    </g>
  </symbol>
  <symbol id="CameraIcon" viewBox="0 0 242.94 182.22">
    <g id="_Слой_1-2">
      <g>
        <path class="cls-4" stroke="black" stroke-miterlimit="10"  stroke-width="8" fill="black"  d="M232.61,178.22H10.33c-3.5,0-6.33-2.84-6.33-6.33V37.11c0-3.5,2.84-6.33,6.33-6.33h222.28c3.5,0,6.33,2.84,6.33,6.33v134.78c0,3.5-2.84,6.33-6.33,6.33Z"/>
        <circle class="cls-1" fill="white"  cx="32.56" cy="71.78" r="17.97"/>
        <circle class="cls-2" cx="32.56" cy="71.78" r="8.56"/>
        <circle class="cls-1" fill="white"  cx="139.67" cy="101.44" r="64.56"/>
        <circle class="cls-3" fill="black"  cx="139.67" cy="101.44" r="52.56"/>
        <circle class="cls-1" fill="white"  cx="141" cy="103" r="36.49"/>
        <circle class="cls-3" fill="black"  cx="141" cy="103" r="25.56"/>
        <path class="cls-4" stroke="black" stroke-miterlimit="10"  stroke-width="8" fill="black"  d="M82.22,30.78c4.67,1.67,29.78-26.78,29.78-26.78h52.89s28,30,27.33,26.78"/>
        <path class="cls-3" fill="black"  d="M82.89,35.61c4.5,1.69,30.03-27.44,30.03-27.44h50.96s27.98,30.79,27.34,27.52"/>
        <rect class="cls-1" fill="white"  x="114.12" y="16.99" width="46.22" height="10.11" rx="5.06" ry="5.06"/>
      </g>
    </g>
  </symbol>
  <symbol id="LongShevronIcon" viewBox="0 0 184.81 86.6">
    <g id="_Слой_1-2" >
      <g>
        <path class="cls-1" d="M0,43.3l72,43.3-34.03-43.04c-24.14,0-13.39-.08-37.59-.08,24.2,0,13.45.08,37.59.08L72,0,0,43.3Z"/>
        <path class="cls-1" d="M25.7,34.3h150.11c4.97,0,9,4.03,9,9h0c0,4.97-4.03,9-9,9H25.7v-18h0Z"/>
      </g>
    </g>
  </symbol>
</svg>